<svg width="19" height="19" viewBox="0 0 19 19" fill="none" xmlns="http://www.w3.org/2000/svg">
<path d="M18.8168 9.71833C18.8168 9.08585 18.7645 8.44995 18.6528 7.82773H9.69629V11.4106H14.8253C14.6124 12.5662 13.9286 13.5884 12.9272 14.238V16.5628H15.9871C17.784 14.9423 18.8168 12.5491 18.8168 9.71833Z" fill="#4285F4"/>
<path d="M9.6974 18.8095C12.2584 18.8095 14.4181 17.9855 15.9917 16.5633L12.9318 14.2385C12.0805 14.806 10.9814 15.1274 9.70089 15.1274C7.22363 15.1274 5.12319 13.4898 4.36955 11.2881H1.21191V13.6847C2.82388 16.8265 6.10712 18.8095 9.6974 18.8095Z" fill="#34A853"/>
<path d="M4.36443 11.2876C3.96667 10.1321 3.96667 8.88081 4.36443 7.72526V5.32867H1.21029C-0.136502 7.95773 -0.136502 11.0552 1.21029 13.6842L4.36443 11.2876Z" fill="#FBBC04"/>
<path d="M9.6974 3.88281C11.0512 3.8623 12.3596 4.36144 13.34 5.27768L16.051 2.62127C14.3344 1.04179 12.056 0.173411 9.6974 0.200761C6.10712 0.200761 2.82388 2.18367 1.21191 5.32897L4.36606 7.72555C5.11621 5.52042 7.22014 3.88281 9.6974 3.88281Z" fill="#EA4335"/>
</svg>
