<svg width="22" height="22" viewBox="0 0 22 22" fill="none" xmlns="http://www.w3.org/2000/svg">
<path opacity="0.5" d="M11.3506 0.845703C11.8785 0.845703 12.2327 0.84671 12.5068 0.865234C12.7067 0.878742 12.829 0.900384 12.9131 0.924805L12.9863 0.950195C13.1518 1.01809 13.3028 1.11808 13.4297 1.24414C13.5563 1.37006 13.6567 1.5198 13.7256 1.68457L13.7266 1.6875C13.7683 1.78664 13.8047 1.94575 13.8203 2.34082V2.33984C13.8329 2.7814 13.9569 3.21276 14.1807 3.59375C14.4066 3.9782 14.7271 4.29911 15.1113 4.52539L15.1289 4.53516C15.519 4.75215 15.958 4.86786 16.4043 4.87012C16.8505 4.87236 17.2895 4.76073 17.6816 4.54785C18.0223 4.36904 18.1832 4.31974 18.2969 4.30469L18.2959 4.30371C18.6564 4.25638 19.0218 4.35373 19.3115 4.57324V4.57422C19.3835 4.62923 19.4757 4.72322 19.624 4.94238C19.7769 5.16826 19.9534 5.47186 20.2178 5.92578C20.4818 6.37919 20.6589 6.68371 20.7793 6.92773C20.896 7.16447 20.9315 7.29021 20.9434 7.37793C20.9664 7.55335 20.9543 7.73152 20.9082 7.90234C20.8621 8.07334 20.7831 8.23388 20.6748 8.37402C20.6059 8.46282 20.4815 8.57509 20.1465 8.78516C19.3976 9.25085 18.8867 10.0676 18.8867 11C18.8867 11.9326 19.3975 12.7483 20.1465 13.2148C20.4818 13.4246 20.6047 13.5369 20.6719 13.624L20.6729 13.626C20.7815 13.7662 20.8619 13.9264 20.9082 14.0977C20.9544 14.2684 20.9662 14.4467 20.9434 14.6221C20.9315 14.7103 20.8962 14.8363 20.7793 15.0732C20.6589 15.3171 20.4819 15.6207 20.2178 16.0742V16.0752C19.9542 16.5288 19.7768 16.832 19.624 17.0576C19.5124 17.2225 19.433 17.3166 19.3701 17.376L19.3125 17.4248C19.0237 17.6448 18.6581 17.743 18.2969 17.6953C18.1822 17.6801 18.0199 17.629 17.6729 17.4463C17.2832 17.2369 16.8468 17.1286 16.4043 17.1309C15.9586 17.1332 15.5205 17.2474 15.1309 17.4639L15.1211 17.4697C14.3135 17.9324 13.8528 18.7766 13.8203 19.6592C13.8047 20.0542 13.7683 20.2134 13.7266 20.3125L13.7256 20.3154C13.5862 20.6486 13.3204 20.9126 12.9863 21.0498C12.9026 21.0842 12.7736 21.1167 12.5068 21.1348C12.2327 21.1533 11.8785 21.1543 11.3506 21.1543C10.8228 21.1543 10.4684 21.1533 10.1943 21.1348C9.92809 21.1168 9.79955 21.0842 9.71582 21.0498C9.37943 20.9116 9.11327 20.6471 8.97559 20.3164L8.97461 20.3125L8.94434 20.2246C8.92528 20.1545 8.909 20.0583 8.89648 19.9141L8.88086 19.6592C8.8494 18.8329 8.44467 18.0408 7.73047 17.5625L7.58301 17.4707L7.57227 17.4648L7.42383 17.3877C7.07248 17.2203 6.68742 17.1319 6.29688 17.1299C5.85423 17.1277 5.41806 17.2366 5.02832 17.4463C4.76831 17.5832 4.61222 17.6465 4.50195 17.6758L4.4043 17.6953C4.04153 17.7421 3.67605 17.6437 3.38867 17.4248C3.31694 17.3697 3.22547 17.2753 3.07812 17.0576C2.92525 16.8317 2.74784 16.5283 2.4834 16.0742C2.21933 15.6208 2.04322 15.3163 1.92285 15.0723C1.83527 14.8947 1.79301 14.7797 1.77246 14.6963L1.75781 14.6221C1.73479 14.4467 1.74691 14.2684 1.79297 14.0977C1.83918 13.9264 1.91876 13.7653 2.02734 13.625L2.02637 13.624C2.09551 13.5354 2.22089 13.4232 2.55469 13.2139L2.55566 13.2148C3.30451 12.7491 3.81445 11.9323 3.81445 11C3.81445 10.0672 3.30296 9.25069 2.55371 8.78418C2.21929 8.57488 2.09639 8.46301 2.0293 8.37598L2.02832 8.37402C1.80782 8.08912 1.71106 7.73093 1.75781 7.37793C1.76966 7.2897 1.80592 7.16369 1.92285 6.92676C2.04322 6.68292 2.21936 6.37915 2.4834 5.92578V5.9248C2.74701 5.47122 2.92442 5.16804 3.07715 4.94238C3.18865 4.77766 3.26818 4.68346 3.33105 4.62402L3.38867 4.5752C3.67845 4.35493 4.04339 4.25755 4.4043 4.30469C4.51892 4.31984 4.68153 4.37014 5.02832 4.55273C5.41814 4.76239 5.85416 4.87138 6.29688 4.86914C6.74285 4.86685 7.18148 4.75281 7.57129 4.53613L7.58008 4.53027L7.58887 4.52539C7.9732 4.29937 8.2934 3.97899 8.51953 3.59473C8.74377 3.21357 8.86721 2.78176 8.87988 2.33984L8.88086 2.34082C8.89648 1.94673 8.93292 1.78654 8.97461 1.6875L8.97559 1.68457C9.09754 1.39306 9.31618 1.15388 9.59277 1.00684L9.71484 0.950195C9.79969 0.915465 9.92915 0.883231 10.1953 0.865234C10.4692 0.846729 10.8229 0.845703 11.3506 0.845703ZM11.3506 6.85352C9.05239 6.8536 7.17969 8.70401 7.17969 11C7.17969 13.2962 9.05367 15.1464 11.3506 15.1465C13.6489 15.1465 15.5225 13.296 15.5225 11C15.5225 8.70377 13.6476 6.85352 11.3506 6.85352Z" stroke="#1A1A1A" stroke-width="1.69231"/>
</svg>
