<svg width="24" height="24" viewBox="0 0 24 24" fill="none" xmlns="http://www.w3.org/2000/svg">
<path opacity="0.5" d="M10.7778 15.6667H18.1111V18.1111H10.7778V15.6667ZM8.33333 5.88889H5.88889V8.33333H8.33333V5.88889ZM10.7778 13.2222H18.1111V10.7778H10.7778V13.2222ZM10.7778 8.33333H18.1111V5.88889H10.7778V8.33333ZM8.33333 10.7778H5.88889V13.2222H8.33333V10.7778ZM23 3.44444V20.5556C23 21.9 21.9 23 20.5556 23H3.44444C2.1 23 1 21.9 1 20.5556V3.44444C1 2.1 2.1 1 3.44444 1H20.5556C21.9 1 23 2.1 23 3.44444ZM20.5556 3.44444H3.44444V20.5556H20.5556V3.44444ZM8.33333 15.6667H5.88889V18.1111H8.33333V15.6667Z" fill="#1A1A1A" stroke="#F4F4F4" stroke-width="0.7"/>
</svg>
