<svg width="28" height="27" viewBox="0 0 28 27" fill="none" xmlns="http://www.w3.org/2000/svg">
<path d="M9.77812 1.0125C10.1062 1.69062 9.81641 2.51094 9.13828 2.83906C7.25156 3.74688 5.65469 5.15781 4.51719 6.92422C3.35234 8.73437 2.73438 10.8344 2.73438 13C2.73438 19.2125 7.7875 24.2656 14 24.2656C20.2125 24.2656 25.2656 19.2125 25.2656 13C25.2656 10.8344 24.6477 8.73437 23.4883 6.91875C22.3563 5.15234 20.7539 3.74141 18.8672 2.83359C18.1891 2.50547 17.8992 1.69063 18.2273 1.00703C18.5555 0.328907 19.3703 0.0390624 20.0539 0.367187C22.4 1.49375 24.3852 3.24375 25.7906 5.44219C27.2344 7.69531 28 10.3094 28 13C28 16.7406 26.5453 20.257 23.8984 22.8984C21.257 25.5453 17.7406 27 14 27C10.2594 27 6.74297 25.5453 4.10156 22.8984C1.45469 20.2516 1.22342e-07 16.7406 1.66948e-07 13C1.99034e-07 10.3094 0.765625 7.69531 2.21484 5.44219C3.62578 3.24922 5.61094 1.49375 7.95156 0.367187C8.63516 0.0445306 9.45 0.328905 9.77812 1.0125Z" fill="#00B074"/>
<path d="M8.67871 12.2728C8.41074 12.0048 8.27949 11.6548 8.27949 11.3048C8.27949 10.9548 8.41074 10.6048 8.67871 10.3368L12.1186 6.89697C12.6217 6.39385 13.2889 6.12041 13.9943 6.12041C14.6998 6.12041 15.3725 6.39932 15.8701 6.89697L19.31 10.3368C19.8459 10.8728 19.8459 11.7368 19.31 12.2728C18.774 12.8087 17.91 12.8087 17.374 12.2728L15.3561 10.2548L15.3561 18.0259C15.3561 18.7806 14.7436 19.3931 13.9889 19.3931C13.2342 19.3931 12.6217 18.7806 12.6217 18.0259L12.6217 10.2493L10.6037 12.2673C10.0787 12.8032 9.21465 12.8032 8.67871 12.2728Z" fill="#00B074"/>
</svg>
