<svg width="23" height="22" viewBox="0 0 23 22" fill="none" xmlns="http://www.w3.org/2000/svg">
<path opacity="0.5" d="M11.445 17.6C11.83 17.6 12.1556 17.4669 12.4218 17.2007C12.688 16.9345 12.8207 16.6093 12.82 16.225C12.8193 15.8407 12.6865 15.5151 12.4218 15.2482C12.1571 14.9813 11.8315 14.8485 11.445 14.85C11.0585 14.8515 10.7333 14.9846 10.4693 15.2493C10.2053 15.514 10.0722 15.8393 10.07 16.225C10.0678 16.6107 10.2009 16.9363 10.4693 17.2018C10.7377 17.4673 11.0629 17.6 11.445 17.6ZM10.455 13.365H12.49C12.49 12.76 12.5589 12.2833 12.6968 11.935C12.8347 11.5867 13.2241 11.11 13.865 10.505C14.3417 10.0283 14.7175 9.5744 14.9925 9.1432C15.2675 8.712 15.405 8.19427 15.405 7.59C15.405 6.56333 15.0292 5.775 14.2775 5.225C13.5258 4.675 12.6367 4.4 11.61 4.4C10.565 4.4 9.71726 4.675 9.0668 5.225C8.41633 5.775 7.9624 6.435 7.705 7.205L9.51999 7.92C9.61166 7.59 9.81809 7.2325 10.1393 6.8475C10.4605 6.4625 10.9507 6.27 11.61 6.27C12.1967 6.27 12.6367 6.4306 12.93 6.7518C13.2233 7.073 13.37 7.42573 13.37 7.81C13.37 8.17667 13.26 8.5206 13.04 8.8418C12.82 9.163 12.545 9.46073 12.215 9.735C11.4083 10.45 10.9133 10.9908 10.73 11.3575C10.5467 11.7242 10.455 12.3933 10.455 13.365ZM11.5 22C9.97833 22 8.54833 21.7114 7.21 21.1343C5.87167 20.5572 4.7075 19.7732 3.7175 18.7825C2.7275 17.7918 1.94393 16.6276 1.3668 15.29C0.789668 13.9524 0.500735 12.5224 0.500001 11C0.499268 9.4776 0.788201 8.0476 1.3668 6.71C1.9454 5.3724 2.72897 4.20824 3.7175 3.2175C4.70603 2.22677 5.8702 1.4432 7.21 0.866805C8.5498 0.290406 9.9798 0.00147222 11.5 5.55555e-06C13.0202 -0.00146111 14.4502 0.287472 15.79 0.866805C17.1298 1.44614 18.294 2.2297 19.2825 3.2175C20.271 4.2053 21.055 5.36947 21.6343 6.71C22.2136 8.05053 22.5022 9.48053 22.5 11C22.4978 12.5195 22.2089 13.9495 21.6332 15.29C21.0575 16.6305 20.274 17.7947 19.2825 18.7825C18.291 19.7703 17.1269 20.5542 15.79 21.1343C14.4531 21.7144 13.0231 22.0029 11.5 22ZM11.5 19.8C13.9567 19.8 16.0375 18.9475 17.7425 17.2425C19.4475 15.5375 20.3 13.4567 20.3 11C20.3 8.54333 19.4475 6.4625 17.7425 4.7575C16.0375 3.0525 13.9567 2.2 11.5 2.2C9.04333 2.2 6.9625 3.0525 5.2575 4.7575C3.5525 6.4625 2.7 8.54333 2.7 11C2.7 13.4567 3.5525 15.5375 5.2575 17.2425C6.9625 18.9475 9.04333 19.8 11.5 19.8Z" fill="#1A1A1A"/>
</svg>
