<svg width="21" height="21" viewBox="0 0 21 21" fill="none" xmlns="http://www.w3.org/2000/svg">
<path d="M9.76299 19.158H1.65786C0.743267 19.158 0 18.4147 0 17.5001V4.69388C0 4.25821 0.176839 3.83084 0.486308 3.52228L3.52205 0.486483C3.8306 0.177927 4.25796 0.000165052 4.69362 0.000165052H14.9208C15.8354 0.000165052 16.5787 0.743447 16.5787 1.65805V9.0265C16.5787 9.33138 16.3309 9.57915 16.0261 9.57915C15.7212 9.57915 15.4734 9.33138 15.4734 9.0265V1.65805C15.4734 1.35318 15.2257 1.10541 14.9208 1.10541H4.69357C4.54897 1.10541 4.4062 1.16436 4.30307 1.26751L1.26732 4.30331C1.16417 4.40647 1.10522 4.54832 1.10522 4.69383V17.5001C1.10522 17.8049 1.35299 18.0527 1.65786 18.0527H9.76299C10.0679 18.0527 10.3156 18.3005 10.3156 18.6054C10.3156 18.9102 10.0679 19.158 9.76299 19.158Z" fill="#878787"/>
<path d="M3.86835 5.52626H0.552729C0.247858 5.52626 9.44424e-05 5.2785 9.44424e-05 4.97362C9.44424e-05 4.66874 0.247858 4.42097 0.552729 4.42097H3.86835C4.17322 4.42097 4.42098 4.1732 4.42098 3.86833V0.552645C4.42098 0.247768 4.66875 0 4.97362 0C5.27849 0 5.52625 0.247768 5.52625 0.552645V3.86833C5.52625 4.78294 4.78294 5.52626 3.86835 5.52626Z" fill="#878787"/>
<path d="M13.0843 3.63641H9.03158C8.72671 3.63641 8.47895 3.38864 8.47895 3.08376C8.47895 2.77888 8.72671 2.53111 9.03158 2.53111H13.0843C13.3891 2.53111 13.6369 2.77888 13.6369 3.08376C13.6369 3.38864 13.3891 3.63641 13.0843 3.63641Z" fill="#878787"/>
<path d="M13.0861 7.83267H3.50731C3.20244 7.83267 2.95468 7.5849 2.95468 7.28003C2.95468 6.97515 3.20244 6.72738 3.50731 6.72738H13.0861C13.391 6.72738 13.6387 6.97515 13.6387 7.28003C13.6387 7.5849 13.391 7.83267 13.0861 7.83267Z" fill="#878787"/>
<path d="M13.0788 10.3159H3.50005C3.19518 10.3159 2.94742 10.0681 2.94742 9.76323C2.94742 9.45835 3.19518 9.21058 3.50005 9.21058H13.0788C13.3837 9.21058 13.6315 9.45835 13.6315 9.76323C13.6315 10.0681 13.3837 10.3159 13.0788 10.3159Z" fill="#878787"/>
<path d="M7.5525 12.8947H3.49982C3.19494 12.8947 2.94718 12.6469 2.94718 12.3421C2.94718 12.0372 3.19494 11.7894 3.49982 11.7894H7.5525C7.85737 11.7894 8.10513 12.0372 8.10513 12.3421C8.10513 12.6469 7.85737 12.8947 7.5525 12.8947Z" fill="#878787"/>
<path d="M7.1842 16.5789H3.50005C3.19518 16.5789 2.94742 16.3312 2.94742 16.0263C2.94742 15.7214 3.19518 15.4736 3.50005 15.4736H7.1842C7.48907 15.4736 7.73684 15.7214 7.73684 16.0263C7.73684 16.3312 7.48907 16.5789 7.1842 16.5789Z" fill="#878787"/>
<path d="M20.4472 21H9.76323C9.45836 21 9.21059 20.7522 9.21059 20.4474V12.3421C9.21059 12.0372 9.45836 11.7894 9.76323 11.7894H14.9939L15.5668 10.9301C15.669 10.7763 15.8422 10.6842 16.0264 10.6842H20.4474C20.7522 10.6842 21 10.9319 21 11.2368V20.4472C21 20.7521 20.7522 20.9999 20.4474 20.9999L20.4472 21ZM10.3157 19.8947H19.8945V11.7894H16.3218L15.749 12.6488C15.6467 12.8026 15.4736 12.8947 15.2894 12.8947H10.3157L10.3157 19.8947Z" fill="#878787"/>
<path d="M18.605 18.9628H11.605C11.3001 18.9628 11.0523 18.715 11.0523 18.4101C11.0523 18.1053 11.3001 17.8575 11.605 17.8575H18.605C18.9098 17.8575 19.1576 18.1053 19.1576 18.4101C19.1576 18.715 18.9098 18.9628 18.605 18.9628Z" fill="#878787"/>
<path d="M18.605 16.5827H18.604L15.6567 16.579C15.3518 16.579 15.1041 16.3313 15.105 16.0255C15.105 15.7206 15.3528 15.4738 15.6577 15.4738H15.6586L18.6059 15.4774C18.9108 15.4774 19.1585 15.7252 19.1576 16.031C19.1576 16.3359 18.9098 16.5827 18.605 16.5827Z" fill="#878787"/>
</svg>
