<svg width="24" height="18" viewBox="0 0 24 18" fill="none" xmlns="http://www.w3.org/2000/svg">
<path d="M19.7 7.85714C18.9438 7.85714 18.2906 7.60714 17.7406 7.03571C17.1906 6.46429 16.95 5.78571 16.95 5C16.95 4.21429 17.1906 3.57143 17.7406 3C18.2906 2.42857 18.9438 2.14286 19.7 2.14286C20.4563 2.14286 21.075 2.42857 21.625 3C22.175 3.57143 22.45 4.21429 22.45 5C22.45 5.78571 22.175 6.46429 21.625 7.03571C21.075 7.60714 20.4563 7.85714 19.7 7.85714ZM19.7 3.85714C19.3906 3.85714 19.1156 4 18.9094 4.21429C18.7031 4.42857 18.6 4.71429 18.6 5C18.6 5.32143 18.7031 5.60714 18.9094 5.82143C19.1156 6.03571 19.3906 6.14286 19.7 6.14286C19.975 6.14286 20.25 6.03571 20.4563 5.82143C20.6625 5.60714 20.8 5.32143 20.8 5C20.8 4.71429 20.6625 4.42857 20.4563 4.21429C20.25 4 19.975 3.85714 19.7 3.85714ZM4.3 7.85714C3.54375 7.85714 2.89063 7.60714 2.34063 7.03571C1.79063 6.46429 1.55 5.78571 1.55 5C1.55 4.21429 1.79063 3.57143 2.34063 3C2.89063 2.42857 3.54375 2.14286 4.3 2.14286C5.05625 2.14286 5.675 2.42857 6.225 3C6.775 3.57143 7.05 4.21429 7.05 5C7.05 5.78571 6.775 6.46429 6.225 7.03571C5.675 7.60714 5.05625 7.85714 4.3 7.85714ZM4.3 3.85714C3.99063 3.85714 3.71563 4 3.50938 4.21429C3.30313 4.42857 3.2 4.71429 3.2 5C3.2 5.32143 3.30313 5.60714 3.50938 5.82143C3.71563 6.03571 3.99063 6.14286 4.3 6.14286C4.575 6.14286 4.85 6.03571 5.05625 5.82143C5.2625 5.60714 5.4 5.32143 5.4 5C5.4 4.71429 5.2625 4.42857 5.05625 4.21429C4.85 4 4.575 3.85714 4.3 3.85714ZM17.9125 11.3929C18.3594 12.1071 18.6 12.8571 18.6 13.6786V15.2857C18.6 15.7857 18.4281 16.1786 18.1187 16.5C17.775 16.8571 17.3969 17 16.95 17H7.05C6.56875 17 6.19062 16.8571 5.88125 16.5C5.5375 16.1786 5.4 15.7857 5.4 15.2857V13.6786C5.4 12.8571 5.60625 12.1071 6.0875 11.3929C6.53438 10.6786 7.15313 10.2143 7.97813 9.92857C8.80313 9.64286 9.62812 9.64286 10.4531 9.89286C10.9344 10.0714 11.45 10.1429 11.9656 10.1429C12.4812 10.1429 12.9969 10.0714 13.5469 9.89286C14.3719 9.64286 15.1625 9.64286 15.9875 9.92857C16.8125 10.2143 17.4313 10.6786 17.9125 11.3929ZM16.95 15.2857V13.6786C16.95 13.0357 16.7094 12.5 16.2969 12.0357C15.85 11.5714 15.3344 11.3214 14.7156 11.2857C13.8219 11.6786 12.8938 11.8571 12 11.8571C11.0719 11.8571 10.1781 11.6786 9.28438 11.2857C8.66563 11.3214 8.11563 11.5714 7.70312 12.0357C7.25625 12.5 7.05 13.0357 7.05 13.6786V15.2857H16.95ZM20.1125 9C20.9031 9 21.5906 9.32143 22.1406 9.89286C22.6906 10.4643 23 11.1786 23 12C23 12.25 22.8969 12.4643 22.7594 12.6071C22.5875 12.7857 22.3813 12.8571 22.175 12.8571C21.9344 12.8571 21.7281 12.7857 21.5906 12.6071C21.4188 12.4643 21.35 12.25 21.35 12C21.35 11.6429 21.2125 11.3571 20.9719 11.1071C20.7313 10.8571 20.4563 10.7143 20.1125 10.7143H19.2875C19.15 10.7143 19.0125 10.75 18.875 10.7857C18.5312 10.3214 18.1531 9.89286 17.6719 9.5C18.1531 9.17857 18.6688 9 19.2875 9H20.1125ZM12 9C11.3125 9 10.6594 8.82143 10.075 8.46429C9.45625 8.10714 9.00938 7.64286 8.66563 7C8.32188 6.39286 8.15 5.71429 8.15 5C8.15 4.28571 8.32188 3.64286 8.66563 3C9.00938 2.39286 9.45625 1.89286 10.075 1.53571C10.6594 1.17857 11.3125 1 12 1C12.6875 1 13.3063 1.17857 13.925 1.53571C14.5094 1.89286 14.9906 2.39286 15.3344 3C15.6781 3.64286 15.85 4.28571 15.85 5C15.85 5.71429 15.6781 6.39286 15.3344 7C14.9906 7.64286 14.5094 8.10714 13.925 8.46429C13.3063 8.82143 12.6875 9 12 9ZM12 2.71429C11.3812 2.71429 10.8656 2.96429 10.4531 3.39286C10.0062 3.85714 9.8 4.39286 9.8 5C9.8 5.64286 10.0062 6.17857 10.4531 6.60714C10.8656 7.07143 11.3812 7.28571 12 7.28571C12.5844 7.28571 13.1 7.07143 13.5469 6.60714C13.9594 6.17857 14.2 5.64286 14.2 5C14.2 4.39286 13.9594 3.85714 13.5469 3.39286C13.1 2.96429 12.5844 2.71429 12 2.71429ZM6.32812 9.5C5.84687 9.89286 5.43438 10.3214 5.125 10.8214C4.9875 10.75 4.85 10.7143 4.7125 10.7143H3.8875C3.54375 10.7143 3.23438 10.8571 2.99375 11.1071C2.75313 11.3571 2.65 11.6429 2.65 12C2.65 12.25 2.54688 12.4643 2.40938 12.6071C2.2375 12.7857 2.03125 12.8571 1.825 12.8571C1.58438 12.8571 1.37813 12.7857 1.24063 12.6071C1.06875 12.4643 1 12.25 1 12C1 11.1786 1.275 10.4643 1.825 9.89286C2.375 9.32143 3.0625 9 3.8875 9H4.7125C5.29688 9 5.84687 9.17857 6.32812 9.5Z" fill="#878787" stroke="#F4F4F4" stroke-width="0.2"/>
</svg>
