<svg width="24" height="24" viewBox="0 0 24 24" fill="none" xmlns="http://www.w3.org/2000/svg">
<path opacity="0.5" d="M1 20.25V3.75C1 3.02065 1.28973 2.32118 1.80546 1.80546C2.32118 1.28973 3.02065 1 3.75 1H20.25C20.9793 1 21.6788 1.28973 22.1945 1.80546C22.7103 2.32118 23 3.02065 23 3.75V20.25C23 20.9793 22.7103 21.6788 22.1945 22.1945C21.6788 22.7103 20.9793 23 20.25 23H3.75C3.02065 23 2.32118 22.7103 1.80546 22.1945C1.28973 21.6788 1 20.9793 1 20.25Z" stroke="#1A1A1A" stroke-width="1.69231" stroke-linecap="round" stroke-linejoin="round"/>
<path opacity="0.5" d="M5 14.75L9.125 10.625L11.875 13.375L16 9.25L18.75 12" stroke="#1A1A1A" stroke-width="1.69231" stroke-linecap="round" stroke-linejoin="round"/>
</svg>
