<svg width="23" height="23" viewBox="0 0 23 23" fill="none" xmlns="http://www.w3.org/2000/svg">
<path d="M3.22122 4.36466C3.05077 4.2003 3.05077 3.93355 3.22122 3.77004C3.39167 3.60569 3.66832 3.60569 3.83788 3.77004L4.99802 4.88872C5.16847 5.05308 5.16847 5.31984 4.99802 5.48334C4.91324 5.56509 4.8008 5.60639 4.68923 5.60639C4.57767 5.60639 4.46613 5.56509 4.38045 5.48334L3.22031 4.36466H3.22122ZM10.1545 3.42412C10.3955 3.42412 10.5909 3.23566 10.5909 3.00331V1.42081C10.5909 1.18846 10.3955 1 10.1545 1C9.91357 1 9.71812 1.18845 9.71812 1.42081V3.00331C9.71812 3.23566 9.91356 3.42412 10.1545 3.42412ZM17.8838 10.8762H19.5249C19.7659 10.8762 19.9613 10.6878 19.9613 10.4554C19.9613 10.2231 19.7659 10.0346 19.5249 10.0346H17.8838C17.6428 10.0346 17.4474 10.2231 17.4474 10.4554C17.4474 10.6878 17.6428 10.8762 17.8838 10.8762ZM15.6197 5.60635C15.7312 5.60635 15.8428 5.56505 15.9285 5.4833L17.0886 4.36462C17.2591 4.20026 17.2591 3.93351 17.0886 3.77C16.9182 3.60564 16.6415 3.60564 16.472 3.77L15.3118 4.88868C15.1414 5.05304 15.1414 5.31979 15.3118 5.4833C15.3966 5.56505 15.509 5.60635 15.6206 5.60635H15.6197ZM16.3479 19.1613C16.5889 19.1613 16.7843 18.9728 16.7843 18.7405V14.4826C16.7843 14.2503 16.5889 14.0618 16.3479 14.0618C16.107 14.0618 15.9115 14.2503 15.9115 14.4826V18.7405C15.9115 18.9728 16.1069 19.1613 16.3479 19.1613ZM2.86261 10.4552C2.86261 10.2229 2.66717 10.0344 2.4262 10.0344H0.785037C0.54408 10.0344 0.348633 10.2229 0.348633 10.4552C0.348633 10.6876 0.544073 10.876 0.785037 10.876H2.4262C2.66716 10.876 2.86261 10.6876 2.86261 10.4552ZM16.4409 19.6688H16.2562C16.0152 19.6688 15.8198 19.8573 15.8198 20.0896C15.8198 20.322 16.0152 20.5104 16.2562 20.5104H16.4409C16.6819 20.5104 16.8773 20.322 16.8773 20.0896C16.8773 19.8573 16.6819 19.6688 16.4409 19.6688ZM22.2639 21.2617C21.9872 21.7238 21.491 22 20.9377 22H11.7573C11.204 22 10.7078 21.7238 10.4312 21.2617C10.3589 21.1403 10.3053 21.013 10.2714 20.8822H2.44484C1.88262 20.8822 1.4257 20.4416 1.4257 19.8995V17.6491C1.4257 17.107 1.88262 16.6664 2.44484 16.6664H2.47964L3.52466 14.5642V10.4689C3.52466 6.9442 6.4983 4.07685 10.1537 4.07685C13.809 4.07685 16.7827 6.9442 16.7827 10.4689V11.4413C17.1539 11.5463 17.4707 11.7829 17.6724 12.1194L22.2621 19.7858C22.5388 20.248 22.5388 20.7996 22.2621 21.2616L22.2639 21.2617ZM4.39854 14.2389H8.89806V12.4275C8.38492 12.0575 8.05294 11.4671 8.05294 10.8037C8.05294 9.68587 8.99623 8.7763 10.1555 8.7763C11.3147 8.7763 12.258 9.68587 12.258 10.8037C12.258 11.4671 11.9252 12.0575 11.4129 12.4275V14.2389H13.7537L15.0227 12.1186C15.2244 11.7821 15.5412 11.5455 15.9125 11.4405V10.4681C15.9125 7.4071 13.3297 4.91778 10.1555 4.91778C6.98105 4.91778 4.39946 7.4082 4.39946 10.4681V14.238L4.39854 14.2389ZM11.3844 10.8036C11.3844 10.1496 10.8329 9.61784 10.1546 9.61784C9.47641 9.61784 8.92488 10.1497 8.92488 10.8036C8.92488 11.4576 9.47641 11.9894 10.1546 11.9894C10.8329 11.9894 11.3844 11.4576 11.3844 10.8036ZM10.1546 12.831C10.0234 12.831 9.89495 12.819 9.77089 12.7966V14.2397H10.5393V12.7966C10.4143 12.819 10.2867 12.831 10.1555 12.831H10.1546ZM3.44819 16.6672H12.2992L13.2487 15.0813L4.23711 15.0804L3.44822 16.6664L3.44819 16.6672ZM11.795 17.508H2.44503C2.36471 17.508 2.29867 17.5716 2.29867 17.6491V19.8994C2.29867 19.9768 2.36471 20.0405 2.44503 20.0405H10.3109C10.343 19.9536 10.3832 19.8675 10.4323 19.7849L11.7959 17.508L11.795 17.508ZM21.5082 20.2057L16.9184 12.5392C16.7997 12.3404 16.5864 12.2217 16.3482 12.2217C16.1099 12.2217 15.8966 12.3404 15.7779 12.5392L11.1881 20.2057C11.0695 20.4045 11.0695 20.642 11.1881 20.8407C11.3068 21.0395 11.5201 21.1583 11.7584 21.1583H20.9388C21.1771 21.1583 21.3904 21.0395 21.5091 20.8407C21.6278 20.642 21.6278 20.4045 21.5091 20.2057H21.5082Z" fill="#878787" stroke="#878787" stroke-width="0.5"/>
</svg>
