<svg width="24" height="24" viewBox="0 0 24 24" fill="none" xmlns="http://www.w3.org/2000/svg">
<path d="M22.718 6.22858C22.4865 5.91187 22.1453 5.70436 21.7577 5.64438C21.37 5.58494 20.9824 5.67948 20.6645 5.91187L20.0757 6.3471L20.0753 6.34728L19.6981 6.62351V3.56667C19.6981 3.36418 19.534 3.2 19.3315 3.2H17.1317V1.36667C17.1317 1.16418 16.9676 1 16.7651 1H1.36663C1.16416 1 1 1.16418 1 1.36667V20.4333C1 20.6358 1.16416 20.8 1.36663 20.8H3.56641V22.6333C3.56641 22.8358 3.73057 23 3.93304 23H19.3315C19.534 23 19.6981 22.8358 19.6981 22.6333V10.2602L21.8102 8.71343L21.8106 8.71296L21.8114 8.71253L22.4002 8.2773C22.7146 8.04723 22.9212 7.70724 22.9822 7.31981C23.0429 6.93882 22.9466 6.54118 22.718 6.22858ZM18.9649 3.93333V7.16053L17.1317 8.50199V3.93333H18.9649ZM1.73326 1.73333H16.3985V9.03856L12.6804 11.763C12.6163 11.8099 12.5693 11.8763 12.5462 11.9524L12.0147 13.705C11.9812 13.8153 12.0016 13.9348 12.0698 14.0279C12.1378 14.121 12.2458 14.1765 12.3611 14.178L14.1942 14.2C14.1958 14.2 14.1972 14.2 14.1987 14.2C14.2037 14.2 14.2083 14.1979 14.2133 14.1977C14.297 14.1993 14.3562 14.1724 14.4155 14.1291L16.3985 12.6768V20.0667H1.73326V1.73333ZM18.9649 10.7974V22.2667H4.29967V20.8H16.7651C16.9676 20.8 17.1317 20.6358 17.1317 20.4333V12.1398L18.9649 10.7974ZM16.5487 11.6564L16.5483 11.6566L14.0807 13.4652L12.858 13.4506L13.2125 12.2822L19.5479 7.64297C19.5486 7.64248 19.5491 7.64178 19.5497 7.64129L20.2132 7.15545L21.081 8.3387L16.5487 11.6564ZM22.2581 7.20469L22.2579 7.20558C22.2273 7.40037 22.124 7.57064 21.9659 7.68647L21.6716 7.904L20.8037 6.72075L21.0988 6.50269C21.2576 6.38649 21.4523 6.33887 21.6457 6.36912C21.8396 6.3992 22.0102 6.50286 22.1262 6.66149C22.2404 6.81743 22.2883 7.01545 22.2581 7.20469Z" fill="#878787"/>
<path d="M13.0988 16.7667H14.9319C15.1344 16.7667 15.2986 16.6025 15.2986 16.4C15.2986 16.1975 15.1344 16.0333 14.9319 16.0333H13.0988C12.8963 16.0333 12.7322 16.1975 12.7322 16.4C12.7322 16.6025 12.8963 16.7667 13.0988 16.7667Z" fill="#878787"/>
<path d="M11.6323 18.6H14.9319C15.1344 18.6 15.2986 18.4358 15.2986 18.2333C15.2986 18.0308 15.1344 17.8667 14.9319 17.8667H11.6323C11.4298 17.8667 11.2656 18.0308 11.2656 18.2333C11.2656 18.4358 11.4298 18.6 11.6323 18.6Z" fill="#878787"/>
<path d="M6.13282 10.5333C4.91979 10.5333 3.93304 11.5202 3.93304 12.7333C3.93304 13.2174 4.09577 13.6942 4.38972 14.0741C4.80683 14.6202 5.44217 14.9333 6.13282 14.9333C6.82329 14.9333 7.45863 14.6202 7.87467 14.0759C8.16987 13.6942 8.3326 13.2174 8.3326 12.7333C8.3326 11.5202 7.34585 10.5333 6.13282 10.5333ZM7.2934 13.6289C7.01592 13.9918 6.5929 14.2 6.13282 14.2C5.67256 14.2 5.24954 13.9918 4.97099 13.6273C4.77156 13.3696 4.6663 13.0606 4.6663 12.7333C4.6663 11.9246 5.32419 11.2667 6.13282 11.2667C6.94145 11.2667 7.59934 11.9246 7.59934 12.7333C7.59934 13.0606 7.49408 13.3696 7.2934 13.6289Z" fill="#878787"/>
<path d="M9.43249 18.6V18.2333C9.43249 17.3546 9.09003 16.5259 8.46704 15.8987C8.25383 15.6855 8.01699 15.5057 7.76278 15.3645C7.60399 15.2765 7.40403 15.3175 7.2934 15.4622C7.01592 15.8251 6.5929 16.0333 6.13282 16.0333C5.67256 16.0333 5.24954 15.8251 4.97224 15.4624C4.86089 15.3165 4.65914 15.2757 4.49928 15.3664C3.47153 15.9528 2.83315 17.0513 2.83315 18.2333V18.6C2.83315 18.8025 2.99731 18.9667 3.19978 18.9667H9.06586C9.26833 18.9667 9.43249 18.8025 9.43249 18.6ZM3.56641 18.2333C3.56641 17.4121 3.96294 16.6424 4.61743 16.1624C5.02165 16.5499 5.55817 16.7667 6.13282 16.7667C6.70819 16.7667 7.24506 16.5493 7.64964 16.161C7.75419 16.2371 7.8539 16.3225 7.94771 16.4163C8.43231 16.9043 8.69923 17.5496 8.69923 18.2333H3.56641Z" fill="#878787"/>
<path d="M4.04725 6.44862L3.81739 7.85799C3.79466 7.99657 3.8532 8.13586 3.96795 8.21678C4.08306 8.29753 4.23361 8.30576 4.3566 8.23791L5.53884 7.58442L6.7209 8.23791C6.77639 8.26852 6.83744 8.28374 6.8983 8.28374C6.97242 8.28374 7.04635 8.26118 7.10937 8.21678C7.2243 8.13604 7.28284 7.99657 7.2601 7.85799L7.03042 6.44862L8.00106 5.45371C8.09701 5.35542 8.12995 5.21165 8.08627 5.08132C8.04259 4.95098 7.92981 4.85591 7.79393 4.83514L6.46741 4.63265L5.87074 3.36131C5.81041 3.23258 5.68098 3.15041 5.53884 3.15041C5.3967 3.15041 5.26727 3.23258 5.20694 3.36131L4.61027 4.63265L3.28374 4.83514C3.14786 4.85591 3.03508 4.95098 2.9914 5.08132C2.94772 5.21165 2.98066 5.35542 3.07662 5.45371L4.04725 6.44862ZM4.91442 5.32803C5.03526 5.30941 5.13909 5.23188 5.191 5.12124L5.53884 4.38003L5.88667 5.12124C5.93858 5.23188 6.04242 5.30941 6.16325 5.32803L6.97797 5.45246L6.37629 6.06906C6.29501 6.15231 6.25813 6.26922 6.27693 6.38416L6.41495 7.23083L5.71624 6.84465C5.60597 6.78341 5.47206 6.78341 5.36143 6.84465L4.66272 7.23083L4.80074 6.38416C4.81954 6.26922 4.78266 6.15231 4.70139 6.06906L4.09971 5.45246L4.91442 5.32803Z" fill="#878787"/>
<path d="M22.718 6.22858C22.4865 5.91187 22.1453 5.70436 21.7577 5.64438C21.37 5.58494 20.9824 5.67948 20.6645 5.91187L20.0757 6.3471L20.0753 6.34728L19.6981 6.62351V3.56667C19.6981 3.36418 19.534 3.2 19.3315 3.2H17.1317V1.36667C17.1317 1.16418 16.9676 1 16.7651 1H1.36663C1.16416 1 1 1.16418 1 1.36667V20.4333C1 20.6358 1.16416 20.8 1.36663 20.8H3.56641V22.6333C3.56641 22.8358 3.73057 23 3.93304 23H19.3315C19.534 23 19.6981 22.8358 19.6981 22.6333V10.2602L21.8102 8.71343L21.8106 8.71296L21.8114 8.71253L22.4002 8.2773C22.7146 8.04723 22.9212 7.70724 22.9822 7.31981C23.0429 6.93882 22.9466 6.54118 22.718 6.22858ZM18.9649 3.93333V7.16053L17.1317 8.50199V3.93333H18.9649ZM1.73326 1.73333H16.3985V9.03856L12.6804 11.763C12.6163 11.8099 12.5693 11.8763 12.5462 11.9524L12.0147 13.705C11.9812 13.8153 12.0016 13.9348 12.0698 14.0279C12.1378 14.121 12.2458 14.1765 12.3611 14.178L14.1942 14.2C14.1958 14.2 14.1972 14.2 14.1987 14.2C14.2037 14.2 14.2083 14.1979 14.2133 14.1977C14.297 14.1993 14.3562 14.1724 14.4155 14.1291L16.3985 12.6768V20.0667H1.73326V1.73333ZM18.9649 10.7974V22.2667H4.29967V20.8H16.7651C16.9676 20.8 17.1317 20.6358 17.1317 20.4333V12.1398L18.9649 10.7974ZM16.5487 11.6564L16.5483 11.6566L14.0807 13.4652L12.858 13.4506L13.2125 12.2822L19.5479 7.64297C19.5486 7.64248 19.5491 7.64178 19.5497 7.64129L20.2132 7.15545L21.081 8.3387L16.5487 11.6564ZM22.2581 7.20469L22.2579 7.20558C22.2273 7.40037 22.124 7.57064 21.9659 7.68647L21.6716 7.904L20.8037 6.72075L21.0988 6.50269C21.2576 6.38649 21.4523 6.33887 21.6457 6.36912C21.8396 6.3992 22.0102 6.50286 22.1262 6.66149C22.2404 6.81743 22.2883 7.01545 22.2581 7.20469Z" stroke="#878787" stroke-width="0.4"/>
<path d="M13.0988 16.7667H14.9319C15.1344 16.7667 15.2986 16.6025 15.2986 16.4C15.2986 16.1975 15.1344 16.0333 14.9319 16.0333H13.0988C12.8963 16.0333 12.7322 16.1975 12.7322 16.4C12.7322 16.6025 12.8963 16.7667 13.0988 16.7667Z" stroke="#878787" stroke-width="0.4"/>
<path d="M11.6323 18.6H14.9319C15.1344 18.6 15.2986 18.4358 15.2986 18.2333C15.2986 18.0308 15.1344 17.8667 14.9319 17.8667H11.6323C11.4298 17.8667 11.2656 18.0308 11.2656 18.2333C11.2656 18.4358 11.4298 18.6 11.6323 18.6Z" stroke="#878787" stroke-width="0.4"/>
<path d="M6.13282 10.5333C4.91979 10.5333 3.93304 11.5202 3.93304 12.7333C3.93304 13.2174 4.09577 13.6942 4.38972 14.0741C4.80683 14.6202 5.44217 14.9333 6.13282 14.9333C6.82329 14.9333 7.45863 14.6202 7.87467 14.0759C8.16987 13.6942 8.3326 13.2174 8.3326 12.7333C8.3326 11.5202 7.34585 10.5333 6.13282 10.5333ZM7.2934 13.6289C7.01592 13.9918 6.5929 14.2 6.13282 14.2C5.67256 14.2 5.24954 13.9918 4.97099 13.6273C4.77156 13.3696 4.6663 13.0606 4.6663 12.7333C4.6663 11.9246 5.32419 11.2667 6.13282 11.2667C6.94145 11.2667 7.59934 11.9246 7.59934 12.7333C7.59934 13.0606 7.49408 13.3696 7.2934 13.6289Z" stroke="#878787" stroke-width="0.4"/>
<path d="M9.43249 18.6V18.2333C9.43249 17.3546 9.09003 16.5259 8.46704 15.8987C8.25383 15.6855 8.01699 15.5057 7.76278 15.3645C7.60399 15.2765 7.40403 15.3175 7.2934 15.4622C7.01592 15.8251 6.5929 16.0333 6.13282 16.0333C5.67256 16.0333 5.24954 15.8251 4.97224 15.4624C4.86089 15.3165 4.65914 15.2757 4.49928 15.3664C3.47153 15.9528 2.83315 17.0513 2.83315 18.2333V18.6C2.83315 18.8025 2.99731 18.9667 3.19978 18.9667H9.06586C9.26833 18.9667 9.43249 18.8025 9.43249 18.6ZM3.56641 18.2333C3.56641 17.4121 3.96294 16.6424 4.61743 16.1624C5.02165 16.5499 5.55817 16.7667 6.13282 16.7667C6.70819 16.7667 7.24506 16.5493 7.64964 16.161C7.75419 16.2371 7.8539 16.3225 7.94771 16.4163C8.43231 16.9043 8.69923 17.5496 8.69923 18.2333H3.56641Z" stroke="#878787" stroke-width="0.4"/>
<path d="M4.04725 6.44862L3.81739 7.85799C3.79466 7.99657 3.8532 8.13586 3.96795 8.21678C4.08306 8.29753 4.23361 8.30576 4.3566 8.23791L5.53884 7.58442L6.7209 8.23791C6.77639 8.26852 6.83744 8.28374 6.8983 8.28374C6.97242 8.28374 7.04635 8.26118 7.10937 8.21678C7.2243 8.13604 7.28284 7.99657 7.2601 7.85799L7.03042 6.44862L8.00106 5.45371C8.09701 5.35542 8.12995 5.21165 8.08627 5.08132C8.04259 4.95098 7.92981 4.85591 7.79393 4.83514L6.46741 4.63265L5.87074 3.36131C5.81041 3.23258 5.68098 3.15041 5.53884 3.15041C5.3967 3.15041 5.26727 3.23258 5.20694 3.36131L4.61027 4.63265L3.28374 4.83514C3.14786 4.85591 3.03508 4.95098 2.9914 5.08132C2.94772 5.21165 2.98066 5.35542 3.07662 5.45371L4.04725 6.44862ZM4.91442 5.32803C5.03526 5.30941 5.13909 5.23188 5.191 5.12124L5.53884 4.38003L5.88667 5.12124C5.93858 5.23188 6.04242 5.30941 6.16325 5.32803L6.97797 5.45246L6.37629 6.06906C6.29501 6.15231 6.25813 6.26922 6.27693 6.38416L6.41495 7.23083L5.71624 6.84465C5.60597 6.78341 5.47206 6.78341 5.36143 6.84465L4.66272 7.23083L4.80074 6.38416C4.81954 6.26922 4.78266 6.15231 4.70139 6.06906L4.09971 5.45246L4.91442 5.32803Z" stroke="#878787" stroke-width="0.4"/>
</svg>
