<svg width="28" height="28" viewBox="0 0 28 28" fill="none" xmlns="http://www.w3.org/2000/svg">
<path d="M22.1667 1.1665H5.83342C4.59574 1.1665 3.40875 1.65817 2.53358 2.53334C1.65841 3.40851 1.16675 4.59549 1.16675 5.83317V13.9998C1.16675 14.3093 1.28966 14.606 1.50846 14.8248C1.72725 15.0436 2.024 15.1665 2.33341 15.1665H8.16675V25.6665C8.1662 25.8896 8.22965 26.1083 8.34959 26.2964C8.46952 26.4846 8.6409 26.6344 8.84342 26.7282C9.0464 26.8216 9.27195 26.8548 9.49325 26.8238C9.71455 26.7928 9.92228 26.6988 10.0917 26.5532L13.4167 23.7065L16.7417 26.5532C16.9531 26.7339 17.222 26.8332 17.5001 26.8332C17.7782 26.8332 18.0471 26.7339 18.2584 26.5532L21.5834 23.7065L24.9084 26.5532C25.1197 26.7339 25.3887 26.8332 25.6667 26.8332C25.8355 26.832 26.0023 26.7962 26.1567 26.7282C26.3593 26.6344 26.5306 26.4846 26.6506 26.2964C26.7705 26.1083 26.834 25.8896 26.8334 25.6665V5.83317C26.8334 4.59549 26.3418 3.40851 25.4666 2.53334C24.5914 1.65817 23.4044 1.1665 22.1667 1.1665ZM3.50008 12.8332V5.83317C3.50008 5.21433 3.74591 4.62084 4.1835 4.18325C4.62108 3.74567 5.21458 3.49984 5.83342 3.49984C6.45225 3.49984 7.04575 3.74567 7.48333 4.18325C7.92092 4.62084 8.16675 5.21433 8.16675 5.83317V12.8332H3.50008ZM24.5001 23.1348L22.3417 21.2798C22.1304 21.0991 21.8615 20.9998 21.5834 20.9998C21.3053 20.9998 21.0364 21.0991 20.8251 21.2798L17.5001 24.1265L14.1751 21.2798C13.9638 21.0991 13.6948 20.9998 13.4167 20.9998C13.1387 20.9998 12.8697 21.0991 12.6584 21.2798L10.5001 23.1348V5.83317C10.4986 5.01356 10.2813 4.2088 9.87008 3.49984H22.1667C22.7856 3.49984 23.3791 3.74567 23.8167 4.18325C24.2542 4.62084 24.5001 5.21433 24.5001 5.83317V23.1348ZM22.1667 6.99984C22.1667 7.30926 22.0438 7.606 21.825 7.82479C21.6062 8.04359 21.3095 8.1665 21.0001 8.1665H14.0001C13.6907 8.1665 13.3939 8.04359 13.1751 7.82479C12.9563 7.606 12.8334 7.30926 12.8334 6.99984C12.8334 6.69042 12.9563 6.39367 13.1751 6.17488C13.3939 5.95609 13.6907 5.83317 14.0001 5.83317H21.0001C21.3095 5.83317 21.6062 5.95609 21.825 6.17488C22.0438 6.39367 22.1667 6.69042 22.1667 6.99984ZM22.1667 11.6665C22.1667 11.9759 22.0438 12.2727 21.825 12.4915C21.6062 12.7103 21.3095 12.8332 21.0001 12.8332H14.0001C13.6907 12.8332 13.3939 12.7103 13.1751 12.4915C12.9563 12.2727 12.8334 11.9759 12.8334 11.6665C12.8334 11.3571 12.9563 11.0603 13.1751 10.8415C13.3939 10.6228 13.6907 10.4998 14.0001 10.4998H21.0001C21.3095 10.4998 21.6062 10.6228 21.825 10.8415C22.0438 11.0603 22.1667 11.3571 22.1667 11.6665ZM22.1667 16.3332C22.1667 16.6426 22.0438 16.9393 21.825 17.1581C21.6062 17.3769 21.3095 17.4998 21.0001 17.4998H14.0001C13.6907 17.4998 13.3939 17.3769 13.1751 17.1581C12.9563 16.9393 12.8334 16.6426 12.8334 16.3332C12.8334 16.0238 12.9563 15.727 13.1751 15.5082C13.3939 15.2894 13.6907 15.1665 14.0001 15.1665H21.0001C21.3095 15.1665 21.6062 15.2894 21.825 15.5082C22.0438 15.727 22.1667 16.0238 22.1667 16.3332Z" fill="#FF5B5B"/>
</svg>
